<?xml version="1.0" encoding="UTF-8"?>
<svg id="Layer_2" xmlns="http://www.w3.org/2000/svg" viewBox="0 0 138.69 151.61">
  <defs>
    <style>
      .cls-1 {
        fill: #273010;
      }

      .cls-2 {
        fill: #202020;
      }

      .cls-3 {
        fill: #bf9d6d;
        font-family: GingerbreadInitials, 'Gingerbread Initials';
        font-size: 112.12px;
      }
    </style>
  </defs>
  <g id="Layer_1-2" data-name="Layer_1">
    <g>
      <g>
        <rect class="cls-1" x="3.94" y="5.41" width="130.12" height="141.39"/>
        <path class="cls-2" d="M85.1,7.17c.89,0,2.45-.2,4.45-.15,1.31.05,2.82.1,4.46.16,1.4.04,2.89.58,4.45.62,1.45.04,2.95-.33,4.48-.29,1.48.04,2.97.44,4.47.48,1.5.05,3,.11,4.46.16,1.53.04,3.03-.28,4.46-.24,1.58.04,3.08.25,4.46.28,1.56-.12,3.26-.15,4.97-.22.85-.04,1.69-.17,2.53-.29l.31-.05c.1-.02.13-.03.21-.04l.38-.08c.26-.05.52-.08.77-.08.82-.01,1.58,0,2.07.02-.01.47-.03.78-.06,1.06-.03.3-.22,1.01-.36,1.56-.07.28-.13.54-.15.75-.02.41,0,.76.09.96.57,1.33.74,2.82.83,4.35.09,1.42.05,2.9-.06,4.38-.11,1.47-.65,2.93-.75,4.36-.11,1.52.21,3,.34,4.38.03,1.5-.06,3-.04,4.5.02,1.5.14,3,.15,4.5s-.09,3-.09,4.5l.03,4.5c0,1.5-.26,3-.27,4.5,0,1.5.25,3,.24,4.5-.02,1.5-.15,3-.17,4.5v4.5c-.03,1.5.17,3,.14,4.5s-.49,3-.52,4.5.24,3,.2,4.5c-.03,1.5-.25,3-.28,4.5l-.08,4.5c-.04,1.5.07,3,.03,4.5.1,1.47.1,2.97.18,4.49.06,1.48.12,2.98.19,4.49.06,1.5.26,3,.31,4.51.05,1.5-.09,3.01-.06,4.5.03,1.51.39,3.01.41,4.49.02,1.52-.04,3.02-.03,4.49.01,1.53-.34,3.03-.34,4.49,0,1.54.42,3.05.41,4.49,0,1.57-.26,3.07-.27,4.49,0,1.61-.14,3.11-.15,4.49-.01,1.7.09,3.21.09,4.49-.01,2.58.01,4.2.08,4.49.19.79,3.25.84,3.25-.06,0-.16-.07-1.83-.05-4.59.01-1.3.03-2.85.04-4.6,0-1.41,0-2.96-.01-4.61,0-1.46.02-3,.02-4.61,0-1.48.15-3.02.16-4.61,0-1.5,0-3.04,0-4.62,0-1.51-.16-3.06-.16-4.62,0-1.52.47-3.06.48-4.62-.02-1.53-.03-3.07-.05-4.61l.03-4.62c-.01-1.54-.02-3.07-.04-4.6-.01-1.55-.03-3.09-.04-4.61.01-1.56.03-3.1.04-4.61,0-1.52-.15-3.03-.21-4.5-.07-1.54-.28-3.05-.35-4.5-.08-1.58-.15-3.09-.14-4.5.02-1.51-.18-3.01-.16-4.52.02-1.51.2-3.01.22-4.52.02-1.51.33-3.02.35-4.53.02-1.51-.21-3.02-.2-4.53s.22-3.02.24-4.53c.02-1.51-.31-3.03-.29-4.54.02-1.51.31-3.02.33-4.53.02-1.51.26-3.02.28-4.53,0-1.82-.02-3.95-.02-5.77.02-1.51.36-3.01.38-4.52.02-1.51.22-3.01.23-4.52.02-1.51-.19-3.01-.17-4.52s-.13-3.01-.11-4.52c0-.38.03-.75.08-1.13l.07-.56.08-.75c.11-1.07.22-2.21.23-3.32,0-1.33-.07-2.59-.14-3.82-.91.04-1.8.08-2.65.07-1.07,0-2.18.07-3.25.14l-1.58.1-.65.03h-.56c-1.51,0-3.01-.19-4.51-.2-1.51,0-3.01-.23-4.52-.24-1.51,0-3.01.16-4.52.16-1.51,0-3.01-.18-4.51-.19s-3.01.08-4.51.08c-1.5,0-3.01-.22-4.51-.23-1.5,0-3.01.35-4.51.35-1.5,0-3.01-.23-4.51-.23-1.5,0-3.01.17-4.51.17-1.5,0-3.01-.22-4.51-.22-1.5,0-3.01.37-4.51.37-1.5,0-3.01-.08-4.51-.08-1.5,0-3.01-.25-4.51-.24-1.5,0-3.01.24-4.51.25-1.5.01-3.01-.09-4.51-.08-1.5.01-3.01.22-4.51.24-1.5.01-3.01-.38-4.51-.36l-4.51.04c-1.5.02-3.01.27-4.51.29-1.5.02-3.01.2-4.51.22l-4.51.03c-1.45,0-2.94,0-4.47,0-1.45,0-2.95.19-4.47.2-1.47,0-2.96-.09-4.49-.09-1.47,0-2.96,0-4.48.01-1.47,0-2.97.14-4.49.15-.37,0-.74-.03-1.11-.07-.49-.05-.97-.1-1.46-.15-1.02-.11-2.11-.22-3.16-.22-.97,0-1.96-.02-2.99-.05-.03,1.04-.06,2.12-.06,3.23,0,2,.16,4.46.16,5.7.03,1.49.06,2.98.09,4.5,0,1.49-.15,2.99-.15,4.5.02,1.49.04,2.98.07,4.49,0,1.49.33,2.99.33,4.49,0,1.49-.51,2.99-.51,4.49,0,1.49.34,2.99.34,4.49,0,1.49.24,2.99.24,4.49,0,1.5-.19,3-.19,4.5,0,1.5-.19,3-.19,4.5l.03,4.5c0,1.5.1,3,.1,4.5,0,1.5-.1,2.99-.1,4.49,0,1.5.35,2.99.35,4.48,0,1.49-.38,2.99-.38,4.48-.01,1.5-.02,2.99-.04,4.48,0,1.5-.11,2.99-.11,4.48,0,1.5.12,2.99.12,4.48,0,1.5.13,2.99.13,4.47.02,1.5.03,3,.05,4.49,0,1.51.21,3,.21,4.49,0,1.51-.3,3-.3,4.48,0,1.51-.11,3.01-.11,4.48,0,1.51.11,3.01.11,4.48,0,1.51.22,3.01.22,4.48-.02,1.52-.04,3.01-.07,4.48.02,1.52.04,3.02.05,4.48,0,1.53-.45,3.02-.45,4.48,0,1.53.35,3.03.34,4.48.02,1.65.03,3.25.05,4.81v5.83s.1,0,.1,0c2.04,0,3.95.16,5.9.16.27,0,.53,0,.8,0l.68-.02c.38-.02.76-.05,1.14-.07.75-.05,1.47-.1,2.17-.1,1.61,0,3.11.44,4.48.44,1.7,0,3.19-.21,4.48-.21s2.79.33,4.56.32c1.39,0,2.92-.62,4.58-.64,1.44-.01,2.98.19,4.58.17,1.47-.02,3.01-.05,4.6-.07,1.49-.02,3.02.11,4.59.09,1.5-.02,3.03.1,4.59.09,1.51-.04,3.04-.07,4.59-.11,1.52-.03,3.05-.07,4.59-.1,1.53-.02,3.06-.04,4.59-.06,1.53-.02,3.06-.34,4.58-.36,1.54-.02,3.07.15,4.58.14,1.55-.02,3.08-.22,4.58-.23,1.56-.02,3.09.51,4.58.49,1.58-.02,3.1-.62,4.57-.64,1.6-.02,3.13.08,4.57.07,1.64,0,3.17,0,4.57.01,1.74,0,3.28.02,4.58.02,2.53-.02,4.16-.26,4.59-.23,1.08.06,2.4.01,3.84-.09,1.25-.09,2.59.24,3.87.13,1.37-.11,2.7-.16,3.85-.19,1.54-.04,3-.08,4.38-.12,1.57-.03,3.03-.5,4.36-.52,1.67-.03,3.13.22,4.35.2,2.7-.06,4.26-.09,4.34-.1.92,0,.99-3.2-.06-3.2-2.09.05-1.78.32-4.17.43-1.28.04-2.74.08-4.2.13-1.47.07-2.93.03-4.19.09-1.24.07-2.7.17-4.23,0-1.38-.16-2.82-.73-4.23-.78-1.48-.05-2.96-.05-4.25.35-1.14.36-2.92.18-4.12.25-1.47.08-2.93.59-4.39.64-1.47.04-2.94-.42-4.4-.41-1.46.01-2.93.24-4.39.23-1.47,0-2.93.28-4.39.25-1.46-.03-2.92-.56-4.39-.6-1.46-.04-2.93.3-4.4.25-1.46-.04-2.92-.45-4.39-.49-1.46-.04-2.93,0-4.4-.03-1.47-.04-2.94.11-4.41.09-1.46-.03-2.93-.2-4.4-.21-1.46,0-2.93.29-4.4.3-1.14.01-3.29.06-4.42.11-1.47.07-2.94-.13-4.4-.06-1.47.07-2.93.26-4.39.32s-2.94-.05-4.41,0c-1.47.06-2.94.26-4.41.31-1.46.05-2.93.02-4.41.06-1.47.03-2.94-.04-4.42-.02-1.46.02-2.93.31-4.41.31-1.46,0-2.93-.01-4.41-.02-1.46-.02-2.93-.38-4.41-.42-.71-.02-1.49.05-2.17.12-.49.07-1.02.13-1.51.1-.68-.05-1.24-.23-1.74-.37.06-.32.11-.63.14-.91.1-.9.2-1.81.3-2.72.11-1.35-.2-2.85-.21-4.46,0-1.41.33-2.92.27-4.47-.06-1.45-.31-2.95-.39-4.47-.08-1.47.11-2.98.04-4.48-.08-1.49-.63-2.98-.68-4.46-.05-1.51.06-3.01.06-4.47,0-1.54-.12-3.05-.03-4.47.1-1.58.59-3.07.83-4.44.12-.68.68-1.87.6-2.55-.17-1.48-.13-2.97-.25-4.46-.12-1.49-.5-2.96-.58-4.45-.08-1.49-.19-2.98-.24-4.47-.05-1.49-.11-2.98-.13-4.47-.02-1.49.02-2.98.02-4.47,0-1.49-.12-2.98-.1-4.47.01-1.49.37-2.98.39-4.47.02-1.49-.39-2.98-.37-4.47.02-1.49.4-2.98.41-4.47.01-1.49-.29-2.98-.29-4.47,0-1.49.02-2.98,0-4.47-.02-1.49.17-2.98.12-4.47-.05-1.49-.26-2.98-.35-4.47.02-1.41.1-2.82.1-4.24,0-1.41-.29-2.82-.29-4.24,0-1.41.24-2.83.26-4.24.02-1.42.41-2.82.48-4.23.08-1.42-.15-2.84.02-4.24.16-1.42.43-2.82.71-4.22.25-1.24.06-2.5-.1-3.75-.2-1.53-.21-3.07-.37-4.58-.16-1.02,0-1.73-.12-2.69-.03-.22-.06-.44-.09-.65.6-.1,1.27-.2,2-.28.24-.02.48-.04.73-.05l.9-.03c.76-.02,1.52-.04,2.28-.06,1.53-.07,3.05-.16,4.56-.2,1.53-.04,3.04-.62,4.56-.64,1.52-.02,3.04.36,4.56.36,1.52,0,3.04-.07,4.56-.05,1.52.02,3.04.13,4.57.16,1.52.03,3.05.05,4.58.08,1.52.04,3.04.2,4.57.24,1.52.05,3.05.1,4.58.15,1.52.04,3.05.09,4.59.13,1.52.04,3.04-.35,4.58-.31,1.51.05,3.04.09,4.57.14,1.51.02,3.04.1,4.58.1.02,0,.6,0,1.48,0,.88,0,2.04-.04,3.22-.12,1.95-.13,3.92-.18,4.69-.06,2.37.36,2.39-.03,4.77.34.49.08,3.5-.38,4-.38ZM130.09,100.15c0,.19-.36.23-.71.23s-.4-.04-.4-.23.05-.44.4-.44.71.25.71.44ZM131.35,119.4c0,.22-.32.29-.63.29s-.32-.07-.32-.29.02-.5.32-.5.63.28.63.5ZM131.6,132.28c0,.12-.25.1-.45.1s-.15.02-.15-.1-.06-.31.15-.31.45.19.45.31ZM130.93,135.73c0,.25-.43.34-.87.34s-.56-.09-.56-.34.12-.54.56-.54.87.3.87.54ZM130.85,139.13c-.26,0-.28-.17-.28-.32s.02-.14.28-.14.63-.01.63.14-.37.32-.63.32ZM136.88,141.61c0,.18-.34.21-.66.21s-.35-.03-.35-.21.03-.42.35-.42.66.24.66.42ZM138.69,52.55c0,.39-.63.6-1.31.6s-1.01-.21-1.01-.6.32-.81,1.01-.81,1.31.41,1.31.81ZM137.84,37.88c0,.29-.46.41-.94.41s-.63-.12-.63-.41.15-.62.63-.62.94.33.94.62ZM131.27,12.55c0,.21-.35.27-.7.27s-.39-.06-.39-.27.05-.48.39-.48.7.27.7.48ZM118.9,1.2c.24,0,.32.4.32.8s-.08.5-.32.5-.52-.09-.52-.5.29-.8.52-.8ZM114.66,8.56c.34,0,.51.52.51,1.07s-.16.76-.51.76-.71-.22-.71-.76.37-1.07.71-1.07ZM71.31,0c.34,0,.51.51.51,1.05s-.16.74-.51.74-.71-.2-.71-.74.37-1.05.71-1.05ZM57.02,8.05c.14,0,.14.31.14.59s0,.28-.14.28-.35,0-.35-.28.21-.59.35-.59ZM11.86,7.83c.2,0,.25.34.25.67s-.05.36-.25.36-.46-.03-.46-.36.26-.67.46-.67ZM21.18,1.15c.22,0,.28.38.28.75s-.06.44-.28.44-.49-.07-.49-.44.27-.75.49-.75ZM19.67.34c.16,0,.17.28.17.54s-.01.23-.17.23-.38.03-.38-.23.22-.54.38-.54ZM6.44,45.57c0-.18.28-.2.54-.2s.23.03.23.2.03.41-.23.41-.54-.24-.54-.41ZM6.46,47.4c0-.27.45-.38.91-.38s.6.11.6.38-.14.59-.6.59-.91-.31-.91-.59ZM.49,70.2c0-.18.34-.22.67-.22s.36.04.36.22-.03.43-.36.43-.67-.24-.67-.43ZM6.06,109.01c0-.27.48-.38.97-.38s.66.11.66.38-.17.59-.66.59-.97-.31-.97-.59ZM0,113.65c0-.18.32-.22.62-.22s.31.04.31.22-.01.43-.31.43-.62-.24-.62-.43ZM9.56,151.61c-.1,0-.16-.09-.2-.22-.07-.13-.09-.31-.09-.48,0-.17.03-.27.09-.32.04-.05.1-.07.2-.07.2,0,.46.05.46.39s-.26.7-.46.7ZM6.75,141.71c0-.08.32-.11.62-.14.3-.03.31-.02.31.03s-.01.12-.31.18c-.3.06-.62.02-.62-.06ZM52.01,143.07c-.33,0-.49-.49-.49-.99s.16-.68.49-.68.7.18.7.68-.36.99-.7.99ZM118.53,150.02c-.32,0-.47-.48-.47-.97s.15-.66.47-.66.68.17.68.66-.36.97-.68.97ZM116.5,143.88c-.32,0-.47-.29-.47-.55s.15-.24.47-.24.67-.02.67.24-.35.55-.67.55ZM120.99,143.72c-.28,0-.4-.24-.4-.43s.11-.12.4-.12.6-.07.6.12-.32.43-.6.43Z"/>
      </g>
      <text class="cls-3" transform="translate(7.36 130.86)"><tspan x="0" y="0">F</tspan></text>
    </g>
  </g>
</svg>